<svg xmlns="http://www.w3.org/2000/svg" version="1.1" xmlns:xlink="http://www.w3.org/1999/xlink" xmlns:svgjs="http://svgjs.dev/svgjs" width="100%" height="100%" viewBox="0 0 1000 600"><rect width="1000" height="600" x="0" y="0" fill="#333333"/><g><rect width="333.3333333333333" height="333.3333333333333" y="334.16204807492636" fill="#efefef" transform="matrix(0.40071828940271076,0,0,0.40071828940271076,0,99.30876808531634)" x="311.939697265625"/><path d="M514.8683228351458 493.4004908555098L514.8683228351458 509.57552547580735L451.92634029094455 509.57552547580735L451.92634029094455 575.8287017013375L432.14708599981986 575.8287017013375L432.14708599981986 425.828697677238L525.0656272696812 425.828697677238L525.0656272696812 442.1209426933347L451.92634029094455 442.1209426933347L451.92634029094455 493.4004908555098L514.8683228351458 493.4004908555098Z " fill="#209cee" transform="matrix(0.40071828940271076,0,0,0.40071828940271076,0,99.30876808531634)"/><path d="M806.0195181138052 496.77019598309244L806.0195181138052 511.9073072893319L747.1164110743081 511.9073072893319L747.1164110743081 573.9091345781136L728.6063564878739 573.9091345781136L728.6063564878739 433.53436505521506L815.562479589478 433.53436505521506L815.562479589478 448.7811655738186L747.1164110743081 448.7811655738186L747.1164110743081 496.77019598309244L806.0195181138052 496.77019598309244ZM882.8568113748253 469.01882525498667L882.8568113748253 485.60931862504987Q878.7983105173554 484.9237610477745 874.0816743857009 484.9237610477745L874.0816743857009 484.9237610477745Q856.5314004074522 484.9237610477745 850.2791153027011 499.86891623237693L850.2791153027011 499.86891623237693L850.2791153027011 573.9091345781136L832.4271959904513 573.9091345781136L832.4271959904513 469.59469361989795L849.7855138470629 469.59469361989795L850.0871591810641 481.66050697994393Q858.8622961701884 467.675132403527 874.9591880846134 467.675132403527L874.9591880846134 467.675132403527Q880.169425671906 467.675132403527 882.8568113748253 469.01882525498667L882.8568113748253 469.01882525498667ZM978.5058045562807 573.9091345781136L959.8037938482095 573.9091345781136Q958.2407225720217 570.8104143288291 957.2809419638362 562.9127910386171L957.2809419638362 562.9127910386171Q944.858638663607 575.8286957944846 927.5825877162684 575.8286957944846L927.5825877162684 575.8286957944846Q912.1712533791189 575.8286957944846 902.2992242663539 567.1084034115422Q892.399772850498 558.3881110286 892.399772850498 544.9786048170943L892.399772850498 544.9786048170943Q892.399772850498 528.6897567810322 904.7946538476361 519.6678190640887Q917.1895348447744 510.67330365023633 939.6484010763145 510.67330365023633L939.6484010763145 510.67330365023633L957.0067189329261 510.67330365023633L957.0067189329261 502.4740350260232Q957.0067189329261 493.12302967198764 951.4125691023593 487.5837244476029Q945.8184192717925 482.04441922321814 934.9317649446601 482.04441922321814L934.9317649446601 482.04441922321814Q925.3888034689874 482.04441922321814 918.9171399395082 486.8433222641455Q912.445476410029 491.6696476081639 912.445476410029 498.5252233809173L912.445476410029 498.5252233809173L894.5387124915972 498.5252233809173Q894.5387124915972 490.70986699997843 900.0780177159819 483.4429566808598Q905.6173229403665 476.14862405865017 915.1054398098573 471.8981670795431Q924.593556679348 467.675132403527 935.9738124621186 467.675132403527L935.9738124621186 467.675132403527Q954.0176878960056 467.675132403527 964.2187846458627 476.6696478173794Q974.4473036988107 485.69158553432294 974.8312159420849 501.5142544178378L974.8312159420849 501.5142544178378L974.8312159420849 549.5307071302026Q974.8312159420849 563.8725716468027 978.5058045562807 572.3734856050169L978.5058045562807 572.3734856050169L978.5058045562807 573.9091345781136ZM930.1877065099147 560.307672244971L930.1877065099147 560.307672244971Q938.5789312557649 560.307672244971 946.0926423027026 555.9749483565907Q953.6337756527314 551.6422244682105 957.0067189329261 544.7043817861842L957.0067189329261 544.7043817861842L957.0067189329261 523.2875630721026L943.0213443565091 523.2875630721026Q910.2516921627479 523.2875630721026 910.2516921627479 542.483175235812L910.2516921627479 542.483175235812Q910.2516921627479 550.8743999816622 915.8184196902237 555.5910361133166Q921.4125695207904 560.307672244971 930.1877065099147 560.307672244971ZM1002.8019650949187 469.59469361989795L1019.666681495892 469.59469361989795L1020.2425498608035 482.70255449740245Q1032.1986740084853 467.675132403527 1051.476553081468 467.675132403527L1051.476553081468 467.675132403527Q1084.5478506092304 467.675132403527 1084.8220736401404 504.9694646073055L1084.8220736401404 504.9694646073055L1084.8220736401404 573.9091345781136L1066.9975766309817 573.9091345781136L1066.9975766309817 504.8871976980324Q1066.8878874186175 493.5892088245348 1061.842183649871 488.2144374186962Q1056.7690575780334 482.8122437097665 1046.0743593725383 482.8122437097665L1046.0743593725383 482.8122437097665Q1037.408911595778 482.8122437097665 1030.8549811570256 487.4191906290568Q1024.3010507182735 492.0535598514381 1020.6264621040776 499.5672708983758L1020.6264621040776 499.5672708983758L1020.6264621040776 573.9091345781136L1002.8019650949187 573.9091345781136L1002.8019650949187 469.59469361989795ZM1153.5697874893112 561.2674528531563L1153.5697874893112 561.2674528531563Q1163.1127489649841 561.2674528531563 1170.242547768648 555.5087692040436Q1177.3723465723112 549.7226632518397 1178.1675933619506 541.0297931719883L1178.1675933619506 541.0297931719883L1195.032309762924 541.0297931719883Q1194.5387083072856 549.9968862827498 1188.862291567446 558.0864656945988Q1183.158452524515 566.2034674095388 1173.6703356550242 571.0297927535572Q1164.1822187855337 575.8286957944846 1153.5697874893112 575.8286957944846L1153.5697874893112 575.8286957944846Q1132.2626579875937 575.8286957944846 1119.6758208688188 561.6239427933396Q1107.0889837500436 547.3917674891035 1107.0889837500436 522.7116947071913L1107.0889837500436 522.7116947071913L1107.0889837500436 519.7226636702708Q1107.0889837500436 504.50328545475827 1112.68313358061 492.62942821634937Q1118.277283411177 480.7829932810315 1128.7526031919442 474.22906284227923Q1139.2005006696204 467.675132403527 1153.4875205800383 467.675132403527L1153.4875205800383 467.675132403527Q1171.0103722551962 467.675132403527 1182.637428765786 478.1778744873852Q1194.2644852763756 488.68061657124343 1195.032309762924 505.4630660629437L1195.032309762924 505.4630660629437L1178.1675933619506 505.4630660629437Q1177.3723465723112 495.3442362223597 1170.4893484964668 488.8177280866985Q1163.6063504206222 482.31864225412824 1153.4875205800383 482.31864225412824L1153.4875205800383 482.31864225412824Q1139.8860582468956 482.31864225412824 1132.399769503049 492.1084044576201Q1124.9409030622933 501.898166661112 1124.9409030622933 520.4082212475462L1124.9409030622933 520.4082212475462L1124.9409030622933 523.7811645277408Q1124.9409030622933 541.7976176585368 1132.3723471999579 551.5325352558466Q1139.7763690345314 561.2674528531563 1153.5697874893112 561.2674528531563ZM1210.3613771908006 522.053559433007L1210.3613771908006 520.7921334908203Q1210.3613771908006 505.4630660629437 1216.3668615677325 493.20529658126065Q1222.3997682477557 480.9749494026686 1233.1493110594329 474.3113297515523Q1243.89885387111 467.675132403527 1257.69227232589 467.675132403527L1257.69227232589 467.675132403527Q1278.9994018276075 467.675132403527 1292.1621073112942 482.4283314664923Q1305.3248127949805 497.18153052945763 1305.3248127949805 521.6696471897328L1305.3248127949805 521.6696471897328L1305.3248127949805 522.9036508288284Q1305.3248127949805 538.150451347432 1299.4838622365946 550.2436870105689Q1293.6429116782087 562.3369226737059 1282.8111019572584 569.0828092340953Q1271.951869933217 575.8286957944846 1257.8842284475272 575.8286957944846L1257.8842284475272 575.8286957944846Q1236.6593658550826 575.8286957944846 1223.524082674487 561.0754967315193Q1210.3613771908006 546.349719971645 1210.3613771908006 522.053559433007L1210.3613771908006 522.053559433007ZM1228.2955634123236 522.9036508288284L1228.2955634123236 522.9036508288284Q1228.2955634123236 540.26196868544 1236.3302982179905 550.7647107692982Q1244.3924553267484 561.2674528531563 1257.8842284475272 561.2674528531563L1257.8842284475272 561.2674528531563Q1271.4856907806698 561.2674528531563 1279.4655809801548 550.6275992538431Q1287.4728934827308 539.9603233514388 1287.4728934827308 520.7921334908203L1287.4728934827308 520.7921334908203Q1287.4728934827308 503.6257717558458 1279.3284694646998 492.98591815653253Q1271.1840454466687 482.31864225412824 1257.69227232589 482.31864225412824L1257.69227232589 482.31864225412824Q1244.4747222360215 482.31864225412824 1236.3851428241726 492.82138433798644Q1228.2955634123236 503.3515487249357 1228.2955634123236 522.9036508288284ZM1472.4911724377994 433.53436505521506L1472.4911724377994 448.7811655738186L1427.354061549991 448.7811655738186L1427.354061549991 573.9091345781136L1408.9536961759209 573.9091345781136L1408.9536961759209 448.7811655738186L1363.9262745004767 448.7811655738186L1363.9262745004767 433.53436505521506L1472.4911724377994 433.53436505521506ZM1476.2480279612682 522.053559433007L1476.2480279612682 520.7921334908203Q1476.2480279612682 505.4630660629437 1482.280934641291 493.20529658126065Q1488.2864190182231 480.9749494026686 1499.0359618299008 474.3113297515523Q1509.785504641578 467.675132403527 1523.5789230963578 467.675132403527L1523.5789230963578 467.675132403527Q1544.8860525980754 467.675132403527 1558.0487580817621 482.4283314664923Q1571.2114635654484 497.18153052945763 1571.2114635654484 521.6696471897328L1571.2114635654484 521.6696471897328L1571.2114635654484 522.9036508288284Q1571.2114635654484 538.150451347432 1565.3705130070625 550.2436870105689Q1559.5295624486766 562.3369226737059 1548.6977527277263 569.0828092340953Q1537.838520703685 575.8286957944846 1523.7708792179947 575.8286957944846L1523.7708792179947 575.8286957944846Q1502.5734389286413 575.8286957944846 1489.410733444955 561.0754967315193Q1476.2480279612682 546.349719971645 1476.2480279612682 522.053559433007L1476.2480279612682 522.053559433007ZM1494.182214182791 522.9036508288284L1494.182214182791 522.9036508288284Q1494.182214182791 540.26196868544 1502.2169489884582 550.7647107692982Q1510.2791060972163 561.2674528531563 1523.7708792179947 561.2674528531563L1523.7708792179947 561.2674528531563Q1537.3723415511377 561.2674528531563 1545.3796540537137 550.6275992538431Q1553.3595442531987 539.9603233514388 1553.3595442531987 520.7921334908203L1553.3595442531987 520.7921334908203Q1553.3595442531987 503.6257717558458 1545.2151202351674 492.98591815653253Q1537.0706962171366 482.31864225412824 1523.5789230963578 482.31864225412824L1523.5789230963578 482.31864225412824Q1510.361373006489 482.31864225412824 1502.2717935946403 492.82138433798644Q1494.182214182791 503.3515487249357 1494.182214182791 522.9036508288284ZM1736.156616657895 573.9091345781136L1722.7471104463893 537.2729376485195L1663.9536926192563 537.2729376485195L1650.7361425293875 573.9091345781136L1631.6502195780422 573.9091345781136L1685.260822120974 433.53436505521506L1701.4399809446718 433.53436505521506L1755.1602726999677 573.9091345781136L1736.156616657895 573.9091345781136ZM1693.3504015328226 456.3771435300294L1669.5478424498228 522.053559433007L1717.2626498281866 522.053559433007L1693.3504015328226 456.3771435300294ZM1821.6593576956757 469.01882525498667L1821.6593576956757 485.60931862504987Q1817.6282791412964 484.9237610477745 1812.8842207065509 484.9237610477745L1812.8842207065509 484.9237610477745Q1795.3613690313932 484.9237610477745 1789.0816616235516 499.86891623237693L1789.0816616235516 499.86891623237693L1789.0816616235516 573.9091345781136L1771.2571646143924 573.9091345781136L1771.2571646143924 469.59469361989795L1788.5880601679132 469.59469361989795L1788.8897055019142 481.66050697994393Q1797.6648424910386 467.675132403527 1813.7617344054638 467.675132403527L1813.7617344054638 467.675132403527Q1818.9719719927562 467.675132403527 1821.6593576956757 469.01882525498667L1821.6593576956757 469.01882525498667ZM1917.308350877131 573.9091345781136L1898.6063401690599 573.9091345781136Q1897.0706911959628 570.8104143288291 1896.0834882846862 562.9127910386171L1896.0834882846862 562.9127910386171Q1883.6611849844571 575.8286957944846 1866.4125563402094 575.8286957944846L1866.4125563402094 575.8286957944846Q1850.9737996999693 575.8286957944846 1841.101770587204 567.1084034115422Q1831.2023191713483 558.3881110286 1831.2023191713483 544.9786048170943L1831.2023191713483 544.9786048170943Q1831.2023191713483 528.6897567810322 1843.5972001684863 519.6678190640887Q1855.9920811656243 510.67330365023633 1878.4509473971648 510.67330365023633L1878.4509473971648 510.67330365023633L1895.8092652537762 510.67330365023633L1895.8092652537762 502.4740350260232Q1895.8092652537762 493.12302967198764 1890.2151154232097 487.5837244476029Q1884.6209655926427 482.04441922321814 1873.7343112655103 482.04441922321814L1873.7343112655103 482.04441922321814Q1864.1913497898377 482.04441922321814 1857.7196862603582 486.8433222641455Q1851.2754450339698 491.6696476081639 1851.2754450339698 498.5252233809173L1851.2754450339698 498.5252233809173L1833.3412588124474 498.5252233809173Q1833.3412588124474 490.70986699997843 1838.8805640368319 483.4429566808598Q1844.4198692612167 476.14862405865017 1853.9079861307073 471.8981670795431Q1863.423525303289 467.675132403527 1874.7763587829686 467.675132403527L1874.7763587829686 467.675132403527Q1892.8202342168556 467.675132403527 1903.0213309667129 476.6696478173794Q1913.2498500196607 485.69158553432294 1913.6337622629349 501.5142544178378L1913.6337622629349 501.5142544178378L1913.6337622629349 549.5307071302026Q1913.6337622629349 563.8725716468027 1917.308350877131 572.3734856050169L1917.308350877131 572.3734856050169L1917.308350877131 573.9091345781136ZM1868.9902528307648 560.307672244971L1868.9902528307648 560.307672244971Q1877.381477576615 560.307672244971 1884.9226109266438 555.9749483565907Q1892.4363219735815 551.6422244682105 1895.8092652537762 544.7043817861842L1895.8092652537762 544.7043817861842L1895.8092652537762 523.2875630721026L1881.8238906773595 523.2875630721026Q1849.054238483598 523.2875630721026 1849.054238483598 542.483175235812L1849.054238483598 542.483175235812Q1849.054238483598 550.8743999816622 1854.6483883141645 555.5910361133166Q1860.2425381447315 560.307672244971 1868.9902528307648 560.307672244971ZM2029.9043273688326 521.3680018557316L2029.9043273688326 522.9036508288284Q2029.9043273688326 546.8158991241921 2018.9079838293364 561.3222974593384Q2007.9116402898399 575.8286957944846 1989.4015857034055 575.8286957944846L1989.4015857034055 575.8286957944846Q1969.6575274778756 575.8286957944846 1958.8531400600164 561.8707435211586L1958.8531400600164 561.8707435211586L1957.9756263611039 573.9091345781136L1941.6045114157687 573.9091345781136L1941.6045114157687 425.82869788664027L1959.4290084249274 425.82869788664027L1959.4290084249274 481.0572163119416Q1970.233395842787 467.675132403527 1989.2096295817682 467.675132403527Q2008.2132856238409 467.675132403527 2019.0725176478823 482.04441922321814Q2029.9043273688326 496.3862837398182 2029.9043273688326 521.3680018557316L2029.9043273688326 521.3680018557316ZM2012.079830359674 520.8744004000934L2012.079830359674 520.8744004000934Q2012.079830359674 502.66599114766035 2005.0322984652835 492.7391174287134Q1997.9847665708926 482.8122437097665 1984.7946387841153 482.8122437097665L1984.7946387841153 482.8122437097665Q1967.1346755935024 482.8122437097665 1959.4290084249274 499.18335865510164L1959.4290084249274 499.18335865510164L1959.4290084249274 544.3204695429099Q1967.6282770491407 560.6915844882451 1984.9865949057526 560.6915844882451L1984.9865949057526 560.6915844882451Q1997.7928104492557 560.6915844882451 2004.9500315560103 550.7647107692982Q2012.079830359674 540.8378370503513 2012.079830359674 520.8744004000934ZM2071.7507618857194 469.59469361989795L2071.7507618857194 573.9091345781136L2053.8988425734697 573.9091345781136L2053.8988425734697 469.59469361989795L2071.7507618857194 469.59469361989795ZM2052.4728828127368 441.92558980106526L2052.4728828127368 441.92558980106526Q2052.4728828127368 437.5928659126851 2055.105423909474 434.6038348757646Q2057.7653873093022 431.6148038388441 2062.975624896595 431.6148038388441Q2068.1858624838874 431.6148038388441 2070.873248186807 434.6038348757646Q2073.588056192817 437.5928659126851 2073.588056192817 441.92558980106526Q2073.588056192817 446.2583136894454 2070.873248186807 449.1650778170928Q2068.1858624838874 452.04441964164926 2062.975624896595 452.04441964164926Q2057.7653873093022 452.04441964164926 2055.105423909474 449.1650778170928Q2052.4728828127368 446.2583136894454 2052.4728828127368 441.92558980106526ZM2142.11639161726 561.2674528531563L2142.11639161726 561.2674528531563Q2151.659353092933 561.2674528531563 2158.7891518965966 555.5087692040436Q2165.9463730033513 549.7226632518397 2166.7141974898996 541.0297931719883L2166.7141974898996 541.0297931719883L2183.5789138908726 541.0297931719883Q2183.0853124352343 549.9968862827498 2177.4088956953947 558.0864656945988Q2171.732478955555 566.2034674095388 2162.216939782973 571.0297927535572Q2152.7288229134824 575.8286957944846 2142.11639161726 575.8286957944846L2142.11639161726 575.8286957944846Q2120.809262115543 575.8286957944846 2108.2224249967676 561.6239427933396Q2095.663010181083 547.3917674891035 2095.663010181083 522.7116947071913L2095.663010181083 522.7116947071913L2095.663010181083 519.7226636702708Q2095.663010181083 504.50328545475827 2101.25716001165 492.62942821634937Q2106.851309842217 480.7829932810315 2117.299207319893 474.22906284227923Q2127.7471047975687 467.675132403527 2142.0341247079873 467.675132403527L2142.0341247079873 467.675132403527Q2159.5843986862355 467.675132403527 2171.1840328937346 478.1778744873852Q2182.8110894043243 488.68061657124343 2183.5789138908726 505.4630660629437L2183.5789138908726 505.4630660629437L2166.7141974898996 505.4630660629437Q2165.9463730033513 495.3442362223597 2159.0359526244156 488.8177280866985Q2152.152954548571 482.31864225412824 2142.0341247079873 482.31864225412824L2142.0341247079873 482.31864225412824Q2128.4326623748443 482.31864225412824 2120.9737959340887 492.1084044576201Q2113.487507190242 501.898166661112 2113.487507190242 520.4082212475462L2113.487507190242 520.4082212475462L2113.487507190242 523.7811645277408Q2113.487507190242 541.7976176585368 2120.9189513279066 551.5325352558466Q2128.3503954655716 561.2674528531563 2142.11639161726 561.2674528531563Z " fill="#209cee" transform="matrix(0.40071828940271076,0,0,0.40071828940271076,0,99.30876808531634)"/></g></svg>